<svg width="21" height="36" viewBox="0 0 21 36" fill="none" xmlns="http://www.w3.org/2000/svg">
<path d="M8.138 21.0324V24.9227H2.41613V29.3061H8.138V35.147H12.4333V29.3072H18.1557V24.9238H12.4333V21.0335C14.8409 20.4932 16.9681 19.0644 18.4066 17.0214C19.8451 14.9784 20.4934 12.4652 20.2271 9.96418C19.9608 7.46318 18.7987 5.15068 16.9639 3.47062C15.1291 1.79055 12.7508 0.861328 10.2856 0.861328C7.82051 0.861328 5.44224 1.79055 3.60739 3.47062C1.77255 5.15068 0.610445 7.46318 0.344175 9.96418C0.0779039 12.4652 0.726231 14.9784 2.1647 17.0214C3.60316 19.0644 5.73038 20.4932 8.138 21.0335V21.0324ZM10.2856 5.2488C11.4139 5.2488 12.5169 5.59024 13.455 6.22995C14.3931 6.86965 15.1243 7.77888 15.5561 8.84266C15.9879 9.90644 16.1008 11.077 15.8807 12.2063C15.6606 13.3356 15.1173 14.3729 14.3195 15.1871C13.5217 16.0013 12.5052 16.5558 11.3986 16.7804C10.292 17.005 9.14495 16.8898 8.10256 16.4491C7.06016 16.0085 6.16921 15.2623 5.54237 14.3049C4.91553 13.3475 4.58096 12.222 4.58096 11.0705C4.58281 9.5271 5.18443 8.04741 6.25387 6.95603C7.3233 5.86466 8.77324 5.25069 10.2856 5.2488Z" fill="#F6576E"/>
</svg>