<svg width="30" height="30" viewBox="0 0 30 30" fill="none" xmlns="http://www.w3.org/2000/svg">
<path d="M29.6583 28.0089L22.3369 20.6876C24.1567 18.4992 25.2531 15.6889 25.2531 12.627C25.2531 5.66442 19.5889 0 12.6266 0C5.66427 0 0 5.66442 0 12.627C0 19.589 5.66427 25.253 12.6266 25.253C15.6885 25.253 18.4988 24.1567 20.6873 22.3369L28.0089 29.6583C28.2366 29.8862 28.5352 30 28.8336 30C29.1321 30 29.4306 29.8862 29.6585 29.6583C30.114 29.2028 30.114 28.4644 29.6583 28.0089ZM2.33277 12.627C2.33277 6.95071 6.95055 2.33277 12.6266 2.33277C18.3026 2.33277 22.9202 6.95071 22.9202 12.627C22.9202 18.3027 18.3026 22.9202 12.6266 22.9202C6.95055 22.9202 2.33277 18.3027 2.33277 12.627Z" fill="#2C7DFA"/>
</svg>