<svg width="22" height="22" viewBox="0 0 22 22" fill="none" xmlns="http://www.w3.org/2000/svg">
<path d="M11 22C17.0751 22 22 17.0751 22 11C22 4.92487 17.0751 0 11 0C4.92487 0 0 4.92487 0 11C0 17.0751 4.92487 22 11 22Z" fill="#6F3FAA"/>
<path d="M15.7722 6.03526C13.0947 5.38858 10.4125 4.63215 7.6667 5.59319C5.88891 6.25985 5.88891 8.1858 5.96299 9.81543C5.96299 10.2599 5.44449 10.8525 5.66668 11.371C6.1111 12.8525 6.4815 14.3339 8.03705 15.0747C8.25928 15.2228 8.03705 15.5191 8.18521 15.7413C8.11113 15.7413 7.96297 15.8154 7.96297 15.8895C7.96297 16.2445 8.1223 16.7876 8.01647 17.1377L12.7433 21.8626C17.6026 21.0887 21.4005 17.1331 21.9349 12.198L15.7722 6.03526Z" fill="#512D84"/>
<path d="M16.8193 7.73051L16.8157 7.71599C16.5218 6.52777 15.1967 5.2528 13.9799 4.98756L13.9662 4.98472C11.9979 4.60926 10.0023 4.60926 8.03445 4.98472L8.02032 4.98756C6.80387 5.2528 5.47876 6.52786 5.18447 7.71599L5.1812 7.73051C4.81786 9.38983 4.81786 11.0727 5.1812 12.732L5.18447 12.7465C5.46625 13.884 6.69263 15.1004 7.86408 15.4349V16.7613C7.86408 17.2414 8.4491 17.4772 8.78177 17.1307L10.1256 15.7338C10.4171 15.7501 10.7087 15.7592 11.0003 15.7592C11.991 15.7592 12.9822 15.6655 13.9661 15.4778L13.9798 15.475C15.1967 15.2097 16.5218 13.9347 16.8157 12.7466L16.8193 12.732C17.1826 11.0727 17.1826 9.38992 16.8193 7.73051ZM15.7558 12.4914C15.5596 13.2666 14.5535 14.2303 13.7541 14.4084C12.7076 14.6074 11.6528 14.6924 10.599 14.6633C10.578 14.6627 10.5579 14.6708 10.5433 14.6859C10.3937 14.8393 9.56212 15.6931 9.56212 15.6931L8.5185 16.7643C8.44218 16.8438 8.30812 16.7897 8.30812 16.6799V14.4826C8.30812 14.4463 8.28221 14.4155 8.24655 14.4085C8.24633 14.4084 8.24616 14.4084 8.24595 14.4083C7.44655 14.2303 6.44083 13.2666 6.24425 12.4914C5.91721 10.9915 5.91721 9.471 6.24425 7.97113C6.44083 7.19594 7.44655 6.23223 8.24595 6.05417C10.0737 5.70655 11.9268 5.70655 13.7542 6.05417C14.5539 6.23223 15.5596 7.19594 15.7559 7.97113C16.0832 9.47105 16.0832 10.9915 15.7558 12.4914Z" fill="white"/>
<path d="M12.7391 13.5057C12.6162 13.4684 12.4991 13.4433 12.3903 13.3983C11.2631 12.9306 10.2259 12.3273 9.40428 11.4026C8.93703 10.8768 8.57133 10.2831 8.26221 9.65477C8.1156 9.35683 7.99207 9.04724 7.86612 8.73958C7.75131 8.45908 7.92044 8.1693 8.0985 7.95789C8.2656 7.75951 8.48066 7.60774 8.71355 7.49581C8.89531 7.4085 9.07458 7.45886 9.20735 7.6129C9.4943 7.94599 9.75795 8.2961 9.97134 8.68222C10.1026 8.91971 10.0666 9.21 9.82868 9.37161C9.77084 9.41088 9.71816 9.45703 9.66432 9.50137C9.61706 9.54026 9.57263 9.57954 9.54023 9.63217C9.48106 9.72847 9.47823 9.84212 9.5163 9.94683C9.80964 10.753 10.3041 11.3799 11.1156 11.7176C11.2454 11.7716 11.3758 11.8344 11.5254 11.817C11.7759 11.7878 11.857 11.513 12.0326 11.3694C12.2042 11.2291 12.4235 11.2273 12.6083 11.3442C12.7932 11.4613 12.9724 11.5868 13.1505 11.7138C13.3254 11.8384 13.4995 11.9602 13.6607 12.1023C13.8158 12.2389 13.8692 12.4181 13.7819 12.6034C13.622 12.9429 13.3894 13.2253 13.0538 13.4056C12.9591 13.4563 12.8459 13.4728 12.7391 13.5057C12.6162 13.4684 12.8459 13.4728 12.7391 13.5057Z" fill="white"/>
<path d="M11.0035 7.108C12.4777 7.14934 13.6886 8.1277 13.9481 9.5852C13.9923 9.83356 14.008 10.0874 14.0277 10.3395C14.036 10.4455 13.9759 10.5462 13.8615 10.5477C13.7434 10.5491 13.6902 10.4502 13.6825 10.3442C13.6673 10.1345 13.6568 9.92371 13.6279 9.71574C13.4753 8.6175 12.5996 7.70892 11.5065 7.51397C11.3419 7.48463 11.1737 7.47694 11.007 7.45945C10.9017 7.4484 10.7638 7.44204 10.7404 7.31108C10.7209 7.20129 10.8135 7.11389 10.9181 7.10826C10.9464 7.10659 10.9749 7.10792 11.0035 7.108C12.4778 7.14934 10.9749 7.10792 11.0035 7.108Z" fill="white"/>
<path d="M13.2437 10.0114C13.2413 10.0299 13.24 10.0731 13.2292 10.1139C13.1901 10.2619 12.9656 10.2804 12.914 10.1311C12.8987 10.0868 12.8964 10.0363 12.8963 9.98862C12.8958 9.67641 12.8279 9.36446 12.6705 9.09277C12.5086 8.81352 12.2613 8.57886 11.9713 8.43676C11.7959 8.35091 11.6063 8.2975 11.414 8.26575C11.33 8.25183 11.2451 8.24345 11.1607 8.23167C11.0584 8.21745 11.0037 8.15227 11.0086 8.05146C11.0131 7.95702 11.0822 7.889 11.1851 7.89489C11.5234 7.91405 11.8502 7.98727 12.1511 8.14651C12.7627 8.47045 13.1121 8.98169 13.2141 9.66442C13.2187 9.69541 13.2261 9.726 13.2285 9.75702C13.2342 9.83359 13.2379 9.91029 13.2437 10.0114C13.2413 10.0298 13.2379 9.91029 13.2437 10.0114Z" fill="white"/>
<path d="M12.3269 9.97675C12.2036 9.97898 12.1376 9.91067 12.1248 9.79766C12.116 9.71885 12.109 9.63893 12.0901 9.56219C12.0531 9.41107 11.9728 9.27108 11.8457 9.17848C11.7857 9.13478 11.7177 9.10294 11.6465 9.08232C11.556 9.05615 11.462 9.06337 11.3718 9.04128C11.2738 9.01726 11.2196 8.93786 11.235 8.84595C11.249 8.76224 11.3304 8.69693 11.4219 8.70359C11.9935 8.74484 12.402 9.04034 12.4603 9.71322C12.4644 9.7607 12.4693 9.81085 12.4587 9.85635C12.4406 9.934 12.383 9.97297 12.3269 9.97675C12.2035 9.97894 12.383 9.97297 12.3269 9.97675Z" fill="white"/>
<path d="M16.819 7.72945L16.8153 7.71493C16.6506 7.04887 16.1617 6.35561 15.5496 5.82812L14.722 6.56152C15.2141 6.95361 15.6357 7.49677 15.7555 7.97003C16.0829 9.46994 16.0829 10.9904 15.7555 12.4903C15.5593 13.2655 14.5532 14.2292 13.7538 14.4073C12.7073 14.6063 11.6525 14.6914 10.5987 14.6622C10.5777 14.6616 10.5576 14.6698 10.543 14.6848C10.3934 14.8383 9.56183 15.6921 9.56183 15.6921L8.51821 16.7632C8.44189 16.8428 8.30783 16.7887 8.30783 16.6788V14.4816C8.30783 14.4452 8.28192 14.4144 8.24626 14.4074C8.24604 14.4074 8.24587 14.4073 8.24566 14.4073C7.79135 14.3061 7.27061 13.9511 6.86945 13.5212L6.05176 14.2458C6.56244 14.8014 7.22111 15.2505 7.86366 15.434V16.7603C7.86366 17.2404 8.44868 17.4762 8.78135 17.1297L10.1252 15.7329C10.4167 15.7491 10.7082 15.7582 10.9999 15.7582C11.9906 15.7582 12.9818 15.6645 13.9657 15.4768L13.9794 15.4741C15.1963 15.2088 16.5214 13.9338 16.8153 12.7456L16.8189 12.7311C17.1823 11.0716 17.1823 9.38886 16.819 7.72945Z" fill="#D1D1D1"/>
<path d="M12.7389 13.5068C12.8457 13.4739 12.616 13.4695 12.7389 13.5068V13.5068Z" fill="white"/>
<path d="M13.6603 12.1041C13.499 11.9621 13.3249 11.8402 13.1501 11.7156C12.9719 11.5886 12.7927 11.463 12.6078 11.346C12.423 11.229 12.2038 11.2309 12.0321 11.3712C11.8566 11.5147 11.7755 11.7895 11.5249 11.8188C11.3754 11.8362 11.2449 11.7733 11.1151 11.7193C10.6158 11.5116 10.237 11.194 9.95072 10.793L9.34229 11.3322C9.36295 11.3562 9.38268 11.3807 9.40369 11.4044C10.2253 12.3291 11.2626 12.9324 12.3897 13.4C12.4984 13.4451 12.6156 13.4702 12.7385 13.5075C12.6156 13.4701 12.8454 13.4746 12.7385 13.5075C12.8454 13.4746 12.9585 13.4581 13.0533 13.4073C13.389 13.227 13.6216 12.9446 13.7814 12.6051C13.8688 12.4199 13.8154 12.2407 13.6603 12.1041Z" fill="#D1D1D1"/>
<path d="M11.0034 7.10742C11.0047 7.10742 11.0059 7.10755 11.0071 7.10755C11.0889 7.11047 12.4196 7.14712 11.0034 7.10742Z" fill="white"/>
<path d="M13.1178 7.98438L12.8584 8.2143C13.266 8.6109 13.5471 9.13654 13.6275 9.71499C13.6564 9.92304 13.667 10.1337 13.6822 10.3435C13.6898 10.4495 13.743 10.5484 13.8612 10.547C13.9756 10.5456 14.0357 10.4449 14.0274 10.3389C14.0076 10.0868 13.992 9.83285 13.9477 9.58454C13.8342 8.94653 13.5383 8.40036 13.1178 7.98438Z" fill="#D1D1D1"/>
<path d="M13.2137 9.66392C13.1394 9.16643 12.933 8.76046 12.5902 8.45117L12.3315 8.68041C12.4653 8.79913 12.581 8.93857 12.6701 9.09235C12.8276 9.36404 12.8955 9.676 12.896 9.98821C12.8961 10.0359 12.8983 10.0863 12.9137 10.1307C12.9654 10.2801 13.1898 10.2616 13.2289 10.1135C13.2397 10.0727 13.2409 10.0295 13.2434 10.0111C13.2409 10.0295 13.2375 9.91 13.2434 10.0111C13.2375 9.91 13.2338 9.83326 13.228 9.75661C13.2258 9.72545 13.2183 9.69486 13.2137 9.66392Z" fill="#D1D1D1"/>
<path d="M13.2435 10.0138C13.2376 9.91266 13.241 10.0321 13.2435 10.0138V10.0138Z" fill="white"/>
<path d="M12.3268 9.9779C12.3287 9.97777 12.3306 9.97678 12.3324 9.97656C12.3272 9.97656 12.3192 9.97669 12.311 9.977C12.3164 9.97712 12.3212 9.97795 12.3268 9.9779Z" fill="white"/>
<path d="M12.3265 9.97747C12.321 9.97755 12.3161 9.97673 12.3107 9.97656C12.284 9.9773 12.2565 9.97872 12.3265 9.97747Z" fill="white"/>
<path d="M12.3323 9.97656C12.3304 9.97678 12.3285 9.97777 12.3267 9.97789C12.3411 9.97691 12.3398 9.97656 12.3323 9.97656Z" fill="white"/>
<path d="M12.0661 8.91602L11.8027 9.14942C11.8173 9.15823 11.8315 9.16743 11.8453 9.17744C11.9724 9.27004 12.0527 9.41003 12.0897 9.56115C12.1085 9.63789 12.1155 9.71773 12.1244 9.79662C12.1366 9.9046 12.1979 9.97099 12.3107 9.97485C12.3189 9.97464 12.327 9.97447 12.3321 9.97442C12.3864 9.96841 12.4409 9.93034 12.4583 9.85523C12.4688 9.80981 12.464 9.75958 12.4598 9.7121C12.4271 9.33591 12.2849 9.07779 12.0661 8.91602Z" fill="#D1D1D1"/>
</svg>