<svg width="18" height="18" viewBox="0 0 18 18" fill="none" xmlns="http://www.w3.org/2000/svg">
<path d="M6.10738 4.56454L9.00009 7.45725L11.8928 4.56454C12.2122 4.24518 12.7305 4.24518 13.0499 4.56454L13.4356 4.95021C13.7549 5.26956 13.7549 5.78793 13.4356 6.10729L10.5428 9L13.4356 11.8927C13.7549 12.2121 13.7549 12.7304 13.4356 13.0498L13.0499 13.4355C12.7305 13.7548 12.2122 13.7548 11.8928 13.4355L9.00009 10.5428L6.10738 13.4355C5.78803 13.7548 5.26966 13.7548 4.9503 13.4355L4.56463 13.0498C4.24527 12.7304 4.24527 12.2121 4.56463 11.8927L7.45734 9L4.56463 6.10729C4.24527 5.78794 4.24527 5.26956 4.56463 4.95021L4.9503 4.56454C5.26966 4.24518 5.78803 4.24518 6.10738 4.56454Z" fill="#8B91DD"/>
</svg>