<svg width="25" height="32" viewBox="0 0 25 32" fill="none" xmlns="http://www.w3.org/2000/svg">
<path d="M17.4289 13.4843L21.4375 6.54132L24.4864 8.30162L22.573 0.156529L14.5624 2.57201L17.6113 4.33231L13.6028 11.2753C11.1881 10.5049 8.57882 10.6483 6.27601 11.6777C3.9732 12.7072 2.13912 14.5502 1.12584 16.853C0.11257 19.1558 -0.008481 21.7561 0.785936 24.1547C1.58035 26.5532 3.23425 28.581 5.43012 29.8488C7.62599 31.1166 10.2091 31.535 12.6835 31.0237C15.1579 30.5124 17.3493 29.1075 18.837 27.0785C20.3246 25.0496 21.0037 22.5397 20.7438 20.0307C20.4839 17.5217 19.3034 15.1904 17.4289 13.4843ZM7.62433 26.0483C6.6193 25.4681 5.80754 24.6052 5.29173 23.5687C4.77591 22.5323 4.57919 21.3688 4.72645 20.2256C4.87372 19.0823 5.35835 18.0105 6.11905 17.1457C6.87976 16.2809 7.88239 15.662 9.00013 15.3672C10.1179 15.0725 11.3005 15.115 12.3986 15.4896C13.4966 15.8642 14.4607 16.5539 15.1689 17.4716C15.8772 18.3893 16.2977 19.4937 16.3774 20.6452C16.4571 21.7966 16.1924 22.9434 15.6167 23.9406C14.8433 25.2762 13.5676 26.2482 12.0693 26.6434C10.571 27.0385 8.97248 26.8245 7.62433 26.0483Z" fill="#8B91DD"/>
</svg>