<svg width="22" height="22" viewBox="0 0 22 22" fill="none" xmlns="http://www.w3.org/2000/svg">
<g>
<path d="M10.9999 21.9997C17.0749 21.9997 21.9997 17.0749 21.9997 10.9999C21.9997 4.92481 17.0749 0 10.9999 0C4.92481 0 0 4.92481 0 10.9999C0 17.0749 4.92481 21.9997 10.9999 21.9997Z" fill="#41B4E6"/>
<path d="M22 11.0003C22 10.7322 21.9899 10.4667 21.9711 10.2034L17.4122 5.64453L4.58789 10.689L9.49453 15.5957L9.5589 15.8274L9.64222 15.7434L9.64256 15.7437L9.5589 15.8274L14.9866 21.2551C19.091 19.6584 22 15.6693 22 11.0003Z" fill="#0091C8"/>
<path d="M9.93179 12.6029L14.9029 16.3561L17.4122 5.64453L4.58789 10.689L8.49018 11.9816L15.612 7.20447L9.93179 12.6029Z" fill="white"/>
<path d="M8.49023 11.9822L9.559 15.828L9.93184 12.6035L15.612 7.20508L8.49023 11.9822Z" fill="#D2D2D7"/>
<path d="M11.5475 13.8214L9.55908 15.8261L9.93192 12.6016L11.5475 13.8214Z" fill="#B9B9BE"/>
</g>
</svg>